<svg xmlns="http://www.w3.org/2000/svg" xmlns:xlink="http://www.w3.org/1999/xlink" version="1.1" id="Layer_1" x="0px" y="0px" width="100%" viewBox="0 0 149 157" enable-background="new 0 0 149 157" xml:space="preserve">
<path opacity="1.000000" stroke="none" d=" M70.000000,158.000000   C46.685333,158.000000 23.870665,158.000000 1.027999,158.000000   C1.027999,105.728127 1.027999,53.456234 1.027999,1.092171   C50.564465,1.092171 100.129158,1.092171 149.846924,1.092171   C149.846924,53.332985 149.846924,105.666443 149.846924,158.000000   C123.456596,158.000000 96.978294,158.000000 70.000000,158.000000  M110.451309,70.063004   C110.357414,70.370407 110.263527,70.677818 109.831978,71.690918   C102.843636,75.226189 101.810944,74.963387 98.977234,68.251419   C98.269295,66.840363 97.561356,65.429306 96.880035,63.354633   C95.270256,61.868835 93.660484,60.383041 91.772354,58.284267   C90.554497,57.172539 89.336632,56.060810 87.820930,54.265705   C85.529823,53.574444 83.238708,52.883183 80.244255,52.036781   C79.149689,51.743904 78.055122,51.451023 76.073479,51.008728   C70.715637,52.061012 65.357803,53.113293 59.338337,54.019627   C58.210491,54.988411 57.082645,55.957195 56.003967,56.972698   C56.003967,56.972698 55.948437,56.940479 55.428356,57.054337   C55.266068,57.353600 55.103775,57.652863 54.982864,58.002594   C54.982864,58.002594 54.931156,57.955864 54.296803,58.197716   C48.757469,63.238400 45.919025,69.447495 46.021461,77.658165   C46.073181,78.107506 46.124897,78.556847 46.030117,79.817741   C46.077335,81.182388 46.124554,82.547028 45.997326,84.302711   C45.997326,84.302711 45.972977,84.730194 45.138611,84.944092   C40.140213,85.516808 35.141815,86.089516 30.143417,86.662224   C30.013296,87.334618 29.883175,88.007004 29.753054,88.679390   C32.496593,89.934151 35.161068,91.957138 38.003643,92.249687   C41.576256,92.617386 45.294651,91.568588 49.247417,91.760544   C50.556099,93.059814 51.789955,94.447289 53.191952,95.636543   C55.045074,97.208466 57.029888,98.625137 59.098045,100.607132   C59.390476,100.772842 59.682907,100.938560 60.297798,101.742149   C63.334160,103.074203 66.271881,104.743637 69.427910,105.666405   C75.543243,107.454437 87.227196,103.527824 90.600151,98.917755   C90.893684,98.730186 91.042816,98.462242 91.680809,97.827492   C94.817825,93.566643 97.954834,89.305801 101.714607,85.008385   C102.167801,84.683823 102.620995,84.359261 103.016777,84.004028   C103.016777,84.004028 103.010979,84.068855 103.677559,83.725632   C105.276672,83.733711 106.938004,84.014793 108.456429,83.668777   C109.821938,83.357628 112.966225,84.645264 112.551346,81.007446   C115.881752,80.995369 118.303627,80.029221 117.958733,75.266289   C119.246635,73.184227 120.534538,71.102165 122.063248,68.410149   C120.836456,63.457817 118.359627,62.858044 111.836357,66.081329   C112.570900,66.721458 113.240013,67.304558 113.455643,68.060753   C113.154465,68.243408 112.990097,68.510315 112.336380,68.962914   C111.855675,69.284027 111.374977,69.605141 110.964691,69.958969   C110.964691,69.958969 110.953102,69.882195 110.451309,70.063004  z" style="&#10;" fill="transparent"/>
<path fill="#6AEDFB" opacity="1.000000" stroke="none" d=" M59.999962,54.165573   C65.357803,53.113293 70.715637,52.061012 76.508728,51.432785   C75.959244,53.570385 74.974518,55.283924 73.674385,56.851440   C72.236267,56.471512 71.113556,56.237610 69.636063,56.057446   C67.741852,57.455757 65.928886,58.592297 64.716927,60.185909   C61.699841,64.153122 58.433674,67.071075 53.065376,64.626221   C53.722019,62.161396 54.326588,60.058628 54.931156,57.955864   C54.931156,57.955864 54.982864,58.002594 55.183746,57.868416   C55.660606,57.532196 55.848541,57.267609 55.948437,56.940479   C55.948437,56.940479 56.003967,56.972698 56.331905,56.967255   C57.773216,56.029736 58.886589,55.097652 59.999962,54.165573  z"/>
<path fill="#A0B9F7" opacity="1.000000" stroke="none" d=" M80.947601,52.191917   C83.238708,52.883183 85.529823,53.574444 87.630859,54.704323   C86.190811,57.017460 83.693512,58.798252 86.996307,61.342438   C86.990982,62.106361 86.988914,62.542938 86.583221,62.980576   C81.480095,62.945824 78.497002,64.668663 78.995148,70.346054   C78.007675,74.389977 75.438461,75.423431 71.973991,74.556442   C71.972984,72.798775 71.962463,71.447601 72.320595,70.051819   C76.472015,67.746445 78.227196,64.403603 78.010727,60.008392   C77.999435,60.002216 78.021416,60.020790 78.347389,59.936802   C79.119469,58.905987 79.565567,57.959156 80.250687,57.000919   C80.489716,56.989513 80.967667,56.964718 81.256218,56.920998   C81.376213,55.919659 81.207664,54.962040 81.025925,53.702251   C80.991028,52.997360 80.969315,52.594639 80.947601,52.191917  z"/>
<path fill="#B86BCC" opacity="1.000000" stroke="none" d=" M121.822441,69.020111   C120.534538,71.102165 119.246635,73.184227 117.489655,75.685760   C114.189522,76.301994 111.358910,76.505310 108.527260,76.693138   C106.704941,76.814011 104.881111,76.912117 102.779602,76.800491   C101.002739,76.053009 99.504219,75.525459 98.157318,74.648338   C98.346947,72.560471 98.384972,70.822189 98.586792,69.010872   C98.750595,68.937843 99.108475,68.961914 99.108475,68.961914   C101.810944,74.963387 102.843636,75.226189 110.173973,71.187698   C110.712418,70.444702 110.858131,70.177277 110.953102,69.882195   C110.953102,69.882195 110.964691,69.958969 111.238510,69.924919   C111.995728,69.547737 112.479134,69.204605 112.962540,68.861465   C112.990097,68.510315 113.154465,68.243408 113.849121,68.110748   C116.769211,68.447189 119.295822,68.733650 121.822441,69.020111  z"/>
<path fill="#9AA0F4" opacity="1.000000" stroke="none" d=" M71.951950,70.096420   C71.962463,71.447601 71.972984,72.798775 71.742981,74.828903   C71.323860,76.681740 71.145264,77.855637 70.622108,79.080086   C68.837349,80.049004 67.397156,80.967369 65.623322,82.071411   C59.201920,83.517006 53.114155,84.776924 46.803795,85.860809   C46.378456,85.366585 46.175716,85.048386 45.972977,84.730194   C45.972977,84.730194 45.997326,84.302711 46.468472,84.128487   C48.639305,82.985420 50.338997,82.016579 52.406948,81.039154   C53.511780,81.015617 54.248344,81.000664 55.381866,80.994507   C58.521198,79.664452 61.263580,78.325592 64.404884,76.992294   C70.528580,77.572655 67.970871,72.049667 70.340424,69.941772   C71.092979,70.010231 71.522469,70.053329 71.951950,70.096420  z"/>
<path fill="#73D0F3" opacity="1.000000" stroke="none" d=" M54.613979,58.076790   C54.326588,60.058628 53.722019,62.161396 53.057236,65.047150   C53.332752,68.232742 53.668488,70.635345 53.948227,73.380203   C52.391636,77.351776 49.885925,78.605797 46.166523,76.991577   C45.919025,69.447495 48.757469,63.238400 54.613979,58.076790  z"/>
<path fill="#B873C8" opacity="1.000000" stroke="none" d=" M45.555794,84.837143   C46.175716,85.048386 46.378456,85.366585 46.796791,86.225441   C47.680695,87.843697 48.348999,88.921295 49.005302,90.282211   C48.978912,90.754028 48.964523,90.942535 48.950134,91.131042   C45.294651,91.568588 41.576256,92.617386 38.003643,92.249687   C35.161068,91.957138 32.496593,89.934151 29.753054,88.679390   C29.883175,88.007004 30.013296,87.334618 30.143417,86.662224   C35.141815,86.089516 40.140213,85.516808 45.555794,84.837143  z"/>
<path fill="#D67DE2" opacity="1.000000" stroke="none" d=" M101.091850,85.044952   C97.954834,89.305801 94.817825,93.566643 91.105362,97.714767   C88.349747,97.722511 86.169579,97.842964 83.996521,97.729263   C84.003624,97.495110 84.023369,97.026176 84.316841,96.863640   C88.893013,93.754112 93.303070,90.909317 94.353180,85.030975   C96.511299,84.656685 98.274483,84.302925 100.035240,83.958275   C100.032806,83.967392 100.023636,83.967331 100.148544,84.194778   C100.546257,84.629807 100.819054,84.837379 101.091850,85.044952  z"/>
<path fill="#B86BCC" opacity="1.000000" stroke="none" d=" M90.142548,99.049576   C87.227196,103.527824 75.543243,107.454437 69.427910,105.666405   C66.271881,104.743637 63.334160,103.074203 60.359138,101.169624   C61.284908,100.395386 62.149334,100.193665 63.372177,100.053650   C65.151344,100.398956 66.572090,100.682556 68.235062,100.987961   C68.477272,101.009758 68.962433,101.044350 69.001625,101.438171   C71.504631,105.883904 75.129623,104.001366 78.171722,103.247398   C82.257805,102.234711 86.160904,100.483665 90.142548,99.049576  z"/>
<path fill="#BF7AF0" opacity="1.000000" stroke="none" d=" M63.013760,99.991951   C62.149334,100.193665 61.284908,100.395386 60.197906,100.850693   C59.682907,100.938560 59.390476,100.772842 59.047478,100.000801   C59.025669,96.947372 62.033813,94.494217 59.360844,92.043633   C61.827839,90.689285 63.915958,89.344696 66.377403,88.013618   C68.655426,88.491058 70.560120,88.954979 73.013275,89.552490   C71.009018,91.057373 69.613045,92.607704 67.875153,93.301140   C64.700058,94.568047 62.950085,96.533638 63.013760,99.991951  z"/>
<path fill="#B385F2" opacity="1.000000" stroke="none" d=" M58.981968,92.053391   C62.033813,94.494217 59.025669,96.947372 58.977505,99.751495   C57.029888,98.625137 55.045074,97.208466 53.191952,95.636543   C51.789955,94.447289 50.556099,93.059814 49.098778,91.445793   C48.964523,90.942535 48.978912,90.754028 49.380524,90.224693   C53.453705,87.996994 56.339897,89.506790 58.981968,92.053391  z"/>
<path fill="#6F3798" opacity="1.000000" stroke="none" d=" M103.057953,77.020424   C104.881111,76.912117 106.704941,76.814011 108.527260,76.693138   C111.358910,76.505310 114.189522,76.301994 117.414886,76.052910   C118.303627,80.029221 115.881752,80.995369 111.925064,81.002991   C111.298790,80.998535 110.876419,80.880249 110.905029,80.522263   C109.855011,80.096825 108.776367,80.029358 107.406555,80.113464   C105.747246,81.532967 104.379112,82.800911 103.010979,84.068855   C103.010979,84.068855 103.016777,84.004028 102.666039,83.971725   C101.551414,83.948723 100.787521,83.958031 100.023636,83.967331   C100.023636,83.967331 100.032806,83.967392 100.152054,83.683060   C100.527641,82.652161 100.783981,81.905579 101.223785,81.017441   C101.635056,80.654579 101.779991,80.388237 101.945572,79.762947   C102.385376,78.639511 102.721664,77.829971 103.057953,77.020424  z"/>
<path fill="#CB5EDC" opacity="1.000000" stroke="none" d=" M90.371353,98.983665   C86.160904,100.483665 82.257805,102.234711 78.171722,103.247398   C75.129623,104.001366 71.504631,105.883904 69.400711,101.417122   C72.176498,100.368004 74.592400,99.733765 77.409363,99.092514   C79.870094,98.711472 81.929756,98.337448 83.989410,97.963425   C86.169579,97.842964 88.349747,97.722511 90.788727,97.857986   C91.042816,98.462242 90.893684,98.730186 90.371353,98.983665  z"/>
<path fill="#D690F5" opacity="1.000000" stroke="none" d=" M96.853416,64.018250   C97.561356,65.429306 98.269295,66.840363 99.042854,68.606667   C99.108475,68.961914 98.750595,68.937843 98.288773,69.070480   C95.887146,70.467613 93.947334,71.732117 91.780945,72.822372   C91.034470,72.095367 90.514587,71.542610 90.009491,70.612724   C91.053383,66.793129 92.002319,63.262619 96.853416,64.018250  z"/>
<path fill="#7CC1F8" opacity="1.000000" stroke="none" d=" M46.093994,77.324875   C49.885925,78.605797 52.391636,77.351776 54.323479,73.371323   C55.505558,73.027878 56.256390,73.035561 57.007797,73.372925   C57.010891,74.143295 57.013409,74.583969 56.865707,75.340057   C56.138630,77.432213 55.561771,79.208961 54.984913,80.985710   C54.248344,81.000664 53.511780,81.015617 52.039745,81.022827   C49.595058,80.345451 47.885838,79.675819 46.176613,79.006187   C46.124897,78.556847 46.073181,78.107506 46.093994,77.324875  z"/>
<path fill="#C697F1" opacity="1.000000" stroke="none" d=" M96.866730,63.686440   C92.002319,63.262619 91.053383,66.793129 89.681114,70.611122   C88.900009,70.980698 88.462067,70.974739 87.881538,70.664108   C87.827667,68.571526 87.916382,66.783630 88.002548,64.997864   C88.000000,65.000000 87.998390,65.006523 88.247131,64.795380   C88.997711,63.392769 89.499557,62.201302 90.265244,60.864376   C91.036293,60.111698 91.543495,59.504471 92.050705,58.897247   C93.660484,60.383041 95.270256,61.868835 96.866730,63.686440  z"/>
<path fill="#87E1FD" opacity="1.000000" stroke="none" d=" M80.595932,52.114349   C80.969315,52.594639 80.991028,52.997360 81.012253,54.072327   C80.997063,55.484619 80.982368,56.224667 80.967667,56.964718   C80.967667,56.964718 80.489716,56.989513 79.919846,57.077930   C78.907112,58.117828 78.464264,59.069309 78.021416,60.020790   C78.021416,60.020790 77.999435,60.002216 77.752167,60.118378   C77.004578,60.487835 76.504257,60.741123 76.000610,60.626709   C75.328125,59.171825 74.658958,58.084644 73.989792,56.997463   C74.974518,55.283924 75.959244,53.570385 76.952263,51.507492   C78.055122,51.451023 79.149689,51.743904 80.595932,52.114349  z"/>
<path fill="#C27AD1" opacity="1.000000" stroke="none" d=" M121.942841,68.715134   C119.295822,68.733650 116.769211,68.447189 114.075851,68.024200   C113.240013,67.304558 112.570900,66.721458 111.836357,66.081329   C118.359627,62.858044 120.836456,63.457817 121.942841,68.715134  z"/>
<path fill="#ADA0F5" opacity="1.000000" stroke="none" d=" M91.911530,58.590755   C91.543495,59.504471 91.036293,60.111698 89.890015,60.861267   C88.500481,61.007442 87.750023,61.011269 86.999573,61.015095   C83.693512,58.798252 86.190811,57.017460 87.779785,55.046013   C89.336632,56.060810 90.554497,57.172539 91.911530,58.590755  z"/>
<path fill="#B86BCC" opacity="1.000000" stroke="none" d=" M110.876419,80.880249   C110.876419,80.880249 111.298790,80.998535 111.518333,80.993393   C112.966225,84.645264 109.821938,83.357628 108.456429,83.668777   C106.938004,84.014793 105.276672,83.733711 103.344269,83.897247   C104.379112,82.800911 105.747246,81.532967 107.740479,80.183128   C109.202530,80.360909 110.039474,80.620575 110.876419,80.880249  z"/>
<path fill="#86ADF6" opacity="1.000000" stroke="none" d=" M46.103363,79.411964   C47.885838,79.675819 49.595058,80.345451 51.671482,81.031418   C50.338997,82.016579 48.639305,82.985420 46.555695,83.932968   C46.124554,82.547028 46.077335,81.182388 46.103363,79.411964  z"/>
<path fill="#73D0F3" opacity="1.000000" stroke="none" d=" M59.669151,54.092598   C58.886589,55.097652 57.773216,56.029736 56.307323,56.943901   C57.082645,55.957195 58.210491,54.988411 59.669151,54.092598  z"/>
<path fill="#B86BCC" opacity="1.000000" stroke="none" d=" M100.148544,84.194778   C100.787521,83.958031 101.551414,83.948723 102.694740,83.987061   C102.620995,84.359261 102.167801,84.683823 101.403229,85.026672   C100.819054,84.837379 100.546257,84.629807 100.148544,84.194778  z"/>
<path fill="#C27AD1" opacity="1.000000" stroke="none" d=" M112.649460,68.912186   C112.479134,69.204605 111.995728,69.547737 111.203293,69.908562   C111.374977,69.605141 111.855675,69.284027 112.649460,68.912186  z"/>
<path fill="#73D0F3" opacity="1.000000" stroke="none" d=" M55.688396,56.997406   C55.848541,57.267609 55.660606,57.532196 55.163055,57.843178   C55.103775,57.652863 55.266068,57.353600 55.688396,56.997406  z"/>
<path fill="#C27AD1" opacity="1.000000" stroke="none" d=" M110.702209,69.972595   C110.858131,70.177277 110.712418,70.444702 110.342804,70.834854   C110.263527,70.677818 110.357414,70.370407 110.702209,69.972595  z"/>
<path fill="#66E5FE" opacity="1.000000" stroke="none" d=" M57.007225,73.043243   C56.256390,73.035561 55.505558,73.027878 54.379471,73.029068   C53.668488,70.635345 53.332752,68.232742 53.005157,65.409210   C58.433674,67.071075 61.699841,64.153122 64.716927,60.185909   C65.928886,58.592297 67.741852,57.455757 69.636734,56.442024   C69.424713,58.261543 69.149170,59.966473 68.236061,61.199116   C65.272163,65.200203 62.074696,69.028259 58.640930,72.945297   C57.878872,72.992851 57.443047,73.018051 57.007225,73.043243  z"/>
<path fill="#77DCFE" opacity="1.000000" stroke="none" d=" M58.967163,72.922943   C62.074696,69.028259 65.272163,65.200203 68.236061,61.199116   C69.149170,59.966473 69.424713,58.261543 69.991516,56.388287   C71.113556,56.237610 72.236267,56.471512 73.674385,56.851440   C74.658958,58.084644 75.328125,59.171825 75.770432,60.885544   C73.062767,63.363541 68.657166,63.254364 68.661911,68.112762   C65.220291,69.818916 62.093727,71.370934 58.967163,72.922943  z"/>
<path fill="#B4B4FE" opacity="1.000000" stroke="none" d=" M70.966667,79.029533   C71.145264,77.855637 71.323860,76.681740 71.733475,75.235390   C75.438461,75.423431 78.007675,74.389977 79.367722,70.355408   C80.503937,70.003578 81.249969,70.012024 81.863113,70.312576   C81.827545,71.738800 81.924866,72.872917 81.876373,74.312027   C81.123535,76.066032 80.516502,77.515068 79.516312,78.986931   C76.404327,79.016350 73.685493,79.022942 70.966667,79.029533  z"/>
<path fill="#88CAFD" opacity="1.000000" stroke="none" d=" M68.976982,67.958611   C68.657166,63.254364 73.062767,63.363541 75.773758,61.253250   C76.504257,60.741123 77.004578,60.487835 77.763458,60.124557   C78.227196,64.403603 76.472015,67.746445 72.320595,70.051819   C71.522469,70.053329 71.092979,70.010231 70.295746,69.659653   C69.610992,68.887650 69.293991,68.423126 68.976982,67.958611  z"/>
<path fill="#ADA0F5" opacity="1.000000" stroke="none" d=" M81.996002,70.020470   C81.249969,70.012024 80.503937,70.003578 79.385330,69.985779   C78.497002,64.668663 81.480095,62.945824 86.802643,63.176277   C87.616577,63.916122 87.807487,64.461319 87.998390,65.006523   C87.998390,65.006523 88.000000,65.000000 87.710190,65.160042   C85.612259,66.886879 83.804131,68.453674 81.996002,70.020470  z"/>
<path fill="#C4AAFE" opacity="1.000000" stroke="none" d=" M88.247131,64.795380   C87.807487,64.461319 87.616577,63.916122 87.206253,63.175220   C86.988914,62.542938 86.990982,62.106361 86.996307,61.342438   C87.750023,61.011269 88.500481,61.007442 89.626160,61.006721   C89.499557,62.201302 88.997711,63.392769 88.247131,64.795380  z"/>
<path fill="#88CAFD" opacity="1.000000" stroke="none" d=" M78.347389,59.936802   C78.464264,59.069309 78.907112,58.117828 79.680817,57.089336   C79.565567,57.959156 79.119469,58.905987 78.347389,59.936802  z"/>
<path fill="#88CAFD" opacity="1.000000" stroke="none" d=" M81.256218,56.920998   C80.982368,56.224667 80.997063,55.484619 81.025436,54.374496   C81.207664,54.962040 81.376213,55.919659 81.256218,56.920998  z"/>
<path fill="#B762CE" opacity="1.000000" stroke="none" d=" M102.779602,76.800491   C102.721664,77.829971 102.385376,78.639511 101.767792,79.904831   C101.271523,80.589676 101.122795,80.855812 101.040321,81.159004   C100.783981,81.905579 100.527641,82.652161 100.154480,83.673950   C98.274483,84.302925 96.511299,84.656685 93.944229,85.002991   C89.353683,84.600250 85.348007,81.622124 81.634819,86.100754   C79.906441,86.586227 78.504539,86.914429 76.757507,87.129807   C75.277863,86.643456 74.143341,86.269928 73.007263,85.515938   C73.007462,84.120880 73.009224,83.106285 73.392578,82.058289   C76.208702,81.029274 78.643219,80.033669 81.391640,78.890244   C83.467842,78.158020 85.230141,77.573631 87.279556,77.228226   C91.046349,76.644119 94.526031,75.821014 98.005707,74.997917   C99.504219,75.525459 101.002739,76.053009 102.779602,76.800491  z"/>
<path fill="#E385F1" opacity="1.000000" stroke="none" d=" M98.157318,74.648338   C94.526031,75.821014 91.046349,76.644119 87.378288,76.888809   C88.795776,75.205803 90.401649,74.101212 92.007530,72.996613   C93.947334,71.732117 95.887146,70.467613 98.124969,69.143509   C98.384972,70.822189 98.346947,72.560471 98.157318,74.648338  z"/>
<path fill="#B367D2" opacity="1.000000" stroke="none" d=" M73.010986,82.091698   C73.009224,83.106285 73.007462,84.120880 72.695999,85.396652   C69.279259,83.769264 66.888519,83.832512 66.004074,88.000107   C63.915958,89.344696 61.827839,90.689285 59.360844,92.043633   C56.339897,89.506790 53.453705,87.996994 49.392529,89.941376   C48.348999,88.921295 47.680695,87.843697 47.019386,86.401474   C53.114155,84.776924 59.201920,83.517006 66.065536,82.092682   C68.897926,81.982750 70.954460,82.037224 73.010986,82.091698  z"/>
<path fill="#8AC0FC" opacity="1.000000" stroke="none" d=" M68.661911,68.112762   C69.293991,68.423126 69.610992,68.887650 69.972679,69.634293   C67.970871,72.049667 70.528580,77.572655 64.286942,76.632385   C61.518696,75.852821 59.267311,75.438736 57.015926,75.024651   C57.013409,74.583969 57.010891,74.143295 57.007797,73.372932   C57.443047,73.018051 57.878872,72.992851 58.640930,72.945297   C62.093727,71.370934 65.220291,69.818916 68.661911,68.112762  z"/>
<path fill="#86ADF6" opacity="1.000000" stroke="none" d=" M56.865707,75.340057   C59.267311,75.438736 61.518696,75.852821 63.888023,76.626816   C61.263580,78.325592 58.521198,79.664452 55.381866,80.994507   C55.561771,79.208961 56.138630,77.432213 56.865707,75.340057  z"/>
<path fill="#C697F1" opacity="1.000000" stroke="none" d=" M73.392578,82.058289   C70.954460,82.037224 68.897926,81.982750 66.399185,81.907013   C67.397156,80.967369 68.837349,80.049004 70.622108,79.080086   C73.685493,79.022942 76.404327,79.016350 79.808929,79.005203   C80.689049,79.013123 80.883400,79.025597 81.077744,79.038063   C78.643219,80.033669 76.208702,81.029274 73.392578,82.058289  z"/>
<path fill="#FA97FD" opacity="1.000000" stroke="none" d=" M81.961304,85.943497   C85.348007,81.622124 89.353683,84.600250 93.549294,85.023529   C93.303070,90.909317 88.893013,93.754112 83.921677,96.828339   C82.514732,95.227867 81.385551,93.545059 81.190491,91.760178   C80.984131,89.871918 81.666901,87.886482 81.961304,85.943497  z"/>
<path fill="#E984F7" opacity="1.000000" stroke="none" d=" M81.634819,86.100754   C81.666901,87.886482 80.984131,89.871918 81.190491,91.760178   C81.385551,93.545059 82.514732,95.227867 83.628204,96.990875   C84.023369,97.026176 84.003624,97.495110 83.996521,97.729263   C81.929756,98.337448 79.870094,98.711472 77.258423,98.730446   C76.469337,96.581688 76.232262,94.787994 76.011673,92.620560   C76.386322,90.578758 76.744484,88.910698 77.102646,87.242638   C78.504539,86.914429 79.906441,86.586227 81.634819,86.100754  z"/>
<path fill="#CE7AF0" opacity="1.000000" stroke="none" d=" M76.757507,87.129807   C76.744484,88.910698 76.386322,90.578758 75.637642,92.624825   C70.952141,93.947495 68.749290,96.798019 67.992844,100.966156   C66.572090,100.682556 65.151344,100.398956 63.372177,100.053650   C62.950085,96.533638 64.700058,94.568047 67.875153,93.301140   C69.613045,92.607704 71.009018,91.057373 73.013275,89.552490   C70.560120,88.954979 68.655426,88.491058 66.377403,88.013618   C66.888519,83.832512 69.279259,83.769264 72.697571,85.777130   C74.143341,86.269928 75.277863,86.643456 76.757507,87.129807  z"/>
<path fill="#DC74F4" opacity="1.000000" stroke="none" d=" M68.235062,100.987961   C68.749290,96.798019 70.952141,93.947495 75.621162,92.998566   C76.232262,94.787994 76.469337,96.581688 76.857346,98.737457   C74.592400,99.733765 72.176498,100.368004 69.361519,101.023300   C68.962433,101.044350 68.477272,101.009758 68.235062,100.987961  z"/>
<path fill="#C4AAFE" opacity="1.000000" stroke="none" d=" M110.905029,80.522263   C110.039474,80.620575 109.202530,80.360909 108.031662,80.031570   C108.776367,80.029358 109.855011,80.096825 110.905029,80.522263  z"/>
<path fill="#B86BCC" opacity="1.000000" stroke="none" d=" M101.223785,81.017441   C101.122795,80.855812 101.271523,80.589676 101.664276,80.218719   C101.779991,80.388237 101.635056,80.654579 101.223785,81.017441  z"/>
<path fill="#D79FFB" opacity="1.000000" stroke="none" d=" M81.391640,78.890244   C80.883400,79.025597 80.689049,79.013123 80.202087,78.982376   C80.516502,77.515068 81.123535,76.066032 82.245697,74.310043   C84.515251,72.991646 86.269691,71.980209 88.024132,70.968781   C88.462067,70.974739 88.900009,70.980698 89.666321,70.988258   C90.514587,71.542610 91.034470,72.095367 91.780945,72.822365   C90.401649,74.101212 88.795776,75.205803 87.091171,76.649811   C85.230141,77.573631 83.467842,78.158020 81.391640,78.890244  z"/>
<path fill="#C4AAFE" opacity="1.000000" stroke="none" d=" M87.881538,70.664101   C86.269691,71.980209 84.515251,72.991646 82.391495,74.005058   C81.924866,72.872917 81.827545,71.738800 81.863113,70.312576   C83.804131,68.453674 85.612259,66.886879 87.712738,65.157906   C87.916382,66.783630 87.827667,68.571526 87.881538,70.664101  z"/>
</svg>
